# xmcd CD database file
#
# Track frame offsets:
#	150
#	27573
#	58053
#	84408
#	113231
#	142459
#
# Disc length: 2243 seconds
#
# Revision: 0
# Processed by: cddbd v1.5.2PL0 Copyright (c) Steve Scherf et al.
# Submitted via: CDex 1.70beta2
#
DISCID=5708c106
DTITLE=Miguel Quintana - Son Habanero
DYEAR=1900
DGENRE=Salsa
TTITLE0=Papa Montero
TTITLE1=Elena La Cumbanchera
TTITLE2=Guaguanco Del Tipico
TTITLE3=A La Loma De Belen
TTITLE4=Como Esta Miguel
TTITLE5=Tribilin Cantore
EXTD=
EXTT0=
EXTT1=
EXTT2=
EXTT3=
EXTT4=
EXTT5=
PLAYORDER=
